<?xml version="1.0" encoding="UTF-8" standalone="no"?>
<!DOCTYPE svg PUBLIC "-//W3C//DTD SVG 1.1//EN"
 "http://www.w3.org/Graphics/SVG/1.1/DTD/svg11.dtd">
<!-- Generated by graphviz version 2.26.3 (20100126.1600)
 -->
<!-- Title: G Pages: 1 -->
<svg width="342pt" height="442pt"
 viewBox="0.00 0.00 342.00 442.00" xmlns="http://www.w3.org/2000/svg" xmlns:xlink="http://www.w3.org/1999/xlink">
<g id="graph1" class="graph" transform="scale(1 1) rotate(0) translate(4 438)">
<title>G</title>
<polygon fill="white" stroke="white" points="-4,5 -4,-438 339,-438 339,5 -4,5"/>
<!-- ROOT -->
<g id="node1" class="node"><title>ROOT</title>
<ellipse fill="black" stroke="black" cx="165" cy="-5" rx="4.68" ry="4.68"/>
</g>
<!-- N0 -->
<g id="node3" class="node"><title>N0</title>
<ellipse fill="black" stroke="black" cx="141" cy="-69" rx="4.68" ry="4.68"/>
</g>
<!-- ROOT&#45;&gt;N0 -->
<g id="edge2" class="edge"><title>ROOT&#45;&gt;N0</title>
<path fill="none" stroke="black" d="M163.274,-9.60272C159.78,-18.9204 151.743,-40.3521 146.341,-54.7579"/>
<polygon fill="black" stroke="black" points="142.945,-53.8467 142.71,-64.439 149.499,-56.3046 142.945,-53.8467"/>
<text text-anchor="middle" x="160" y="-32.9" font-family="Times Roman,serif" font-size="14.00">0</text>
</g>
<!-- N1 -->
<g id="node5" class="node"><title>N1</title>
<ellipse fill="black" stroke="black" cx="187" cy="-69" rx="4.68" ry="4.68"/>
</g>
<!-- ROOT&#45;&gt;N1 -->
<g id="edge4" class="edge"><title>ROOT&#45;&gt;N1</title>
<path fill="none" stroke="black" d="M166.582,-9.60272C169.785,-18.9204 177.152,-40.3521 182.104,-54.7579"/>
<polygon fill="black" stroke="black" points="178.871,-56.1199 185.432,-64.439 185.491,-53.8443 178.871,-56.1199"/>
<text text-anchor="middle" x="183" y="-32.9" font-family="Times Roman,serif" font-size="14.00">1</text>
</g>
<!-- N00 -->
<g id="node7" class="node"><title>N00</title>
<ellipse fill="black" stroke="black" cx="102" cy="-146" rx="4.68" ry="4.68"/>
</g>
<!-- N0&#45;&gt;N00 -->
<g id="edge6" class="edge"><title>N0&#45;&gt;N00</title>
<path fill="none" stroke="black" d="M138.274,-73.1558C135.34,-77.6994 130.609,-85.2364 127,-92 119.925,-105.259 112.818,-120.885 108,-131.908"/>
<polygon fill="black" stroke="black" points="104.638,-130.866 103.905,-141.435 111.07,-133.63 104.638,-130.866"/>
<text text-anchor="middle" x="132" y="-96.9" font-family="Times Roman,serif" font-size="14.00">0</text>
</g>
<!-- N01 -->
<g id="node13" class="node"><title>N01</title>
<ellipse fill="black" stroke="black" cx="141" cy="-146" rx="4.68" ry="4.68"/>
</g>
<!-- N0&#45;&gt;N01 -->
<g id="edge12" class="edge"><title>N0&#45;&gt;N01</title>
<path fill="none" stroke="black" d="M141,-74.0522C141,-85.4697 141,-113.629 141,-131.141"/>
<polygon fill="black" stroke="black" points="137.5,-131.227 141,-141.227 144.5,-131.227 137.5,-131.227"/>
<text text-anchor="middle" x="146" y="-96.9" font-family="Times Roman,serif" font-size="14.00">1</text>
</g>
<!-- N10 -->
<g id="node23" class="node"><title>N10</title>
<polygon fill="none" stroke="black" points="211,-164 163,-164 163,-128 211,-128 211,-164"/>
<text text-anchor="middle" x="187" y="-141.9" font-family="Times Roman,serif" font-size="14.00">10...</text>
</g>
<!-- N1&#45;&gt;N10 -->
<g id="edge22" class="edge"><title>N1&#45;&gt;N10</title>
<path fill="none" stroke="black" d="M187,-74.0522C187,-82.8349 187,-101.524 187,-117.653"/>
<polygon fill="black" stroke="black" points="183.5,-117.752 187,-127.752 190.5,-117.752 183.5,-117.752"/>
<text text-anchor="middle" x="192" y="-96.9" font-family="Times Roman,serif" font-size="14.00">0</text>
</g>
<!-- N11 -->
<g id="node25" class="node"><title>N11</title>
<ellipse fill="black" stroke="black" cx="233" cy="-146" rx="4.68" ry="4.68"/>
</g>
<!-- N1&#45;&gt;N11 -->
<g id="edge24" class="edge"><title>N1&#45;&gt;N11</title>
<path fill="none" stroke="black" d="M189.595,-73.23C192.417,-77.8371 197.053,-85.4279 201,-92 209.419,-106.017 218.962,-122.154 225.419,-133.11"/>
<polygon fill="black" stroke="black" points="222.439,-134.946 230.527,-141.789 228.471,-131.395 222.439,-134.946"/>
<text text-anchor="middle" x="216" y="-96.9" font-family="Times Roman,serif" font-size="14.00">1</text>
</g>
<!-- N000 -->
<g id="node9" class="node"><title>N000</title>
<polygon fill="none" stroke="black" points="56,-254 2.4869e-14,-254 0,-218 56,-218 56,-254"/>
<text text-anchor="middle" x="28" y="-231.9" font-family="Times Roman,serif" font-size="14.00">000...</text>
</g>
<!-- N00&#45;&gt;N000 -->
<g id="edge8" class="edge"><title>N00&#45;&gt;N000</title>
<path fill="none" stroke="black" d="M98.8203,-149.867C90.4309,-160.07 67.1345,-188.404 49.533,-209.811"/>
<polygon fill="black" stroke="black" points="46.7565,-207.677 43.1089,-217.624 52.1635,-212.123 46.7565,-207.677"/>
<text text-anchor="middle" x="77" y="-186.9" font-family="Times Roman,serif" font-size="14.00">0</text>
</g>
<!-- N001 -->
<g id="node11" class="node"><title>N001</title>
<polygon fill="none" stroke="black" points="130,-254 74,-254 74,-218 130,-218 130,-254"/>
<text text-anchor="middle" x="102" y="-231.9" font-family="Times Roman,serif" font-size="14.00">001...</text>
</g>
<!-- N00&#45;&gt;N001 -->
<g id="edge10" class="edge"><title>N00&#45;&gt;N001</title>
<path fill="none" stroke="black" d="M102,-150.839C102,-161.41 102,-187.258 102,-207.725"/>
<polygon fill="black" stroke="black" points="98.5001,-207.828 102,-217.828 105.5,-207.828 98.5001,-207.828"/>
<text text-anchor="middle" x="107" y="-186.9" font-family="Times Roman,serif" font-size="14.00">1</text>
</g>
<!-- N011 -->
<g id="node15" class="node"><title>N011</title>
<ellipse fill="black" stroke="black" cx="152" cy="-236" rx="4.68" ry="4.68"/>
</g>
<!-- N01&#45;&gt;N011 -->
<g id="edge14" class="edge"><title>N01&#45;&gt;N011</title>
<path fill="none" stroke="black" d="M141.591,-150.839C143.188,-163.902 147.636,-200.293 150.17,-221.031"/>
<polygon fill="black" stroke="black" points="146.718,-221.636 151.406,-231.137 153.667,-220.787 146.718,-221.636"/>
<text text-anchor="middle" x="153" y="-186.9" font-family="Times Roman,serif" font-size="14.00">1</text>
</g>
<!-- N0111 -->
<g id="node17" class="node"><title>N0111</title>
<ellipse fill="black" stroke="black" cx="152" cy="-326" rx="4.68" ry="4.68"/>
</g>
<!-- N011&#45;&gt;N0111 -->
<g id="edge16" class="edge"><title>N011&#45;&gt;N0111</title>
<path fill="none" stroke="black" d="M152,-240.839C152,-253.902 152,-290.293 152,-311.031"/>
<polygon fill="black" stroke="black" points="148.5,-311.137 152,-321.137 155.5,-311.137 148.5,-311.137"/>
<text text-anchor="middle" x="157" y="-276.9" font-family="Times Roman,serif" font-size="14.00">1</text>
</g>
<!-- N01110 -->
<g id="node19" class="node"><title>N01110</title>
<polygon fill="none" stroke="black" points="143,-434 69,-434 69,-398 143,-398 143,-434"/>
<text text-anchor="middle" x="106" y="-411.9" font-family="Times Roman,serif" font-size="14.00">01110...</text>
</g>
<!-- N0111&#45;&gt;N01110 -->
<g id="edge18" class="edge"><title>N0111&#45;&gt;N01110</title>
<path fill="none" stroke="black" d="M149.781,-330.341C144.459,-340.755 130.612,-367.846 119.903,-388.799"/>
<polygon fill="black" stroke="black" points="116.679,-387.415 115.245,-397.912 122.913,-390.601 116.679,-387.415"/>
<text text-anchor="middle" x="139" y="-366.9" font-family="Times Roman,serif" font-size="14.00">0</text>
</g>
<!-- N01111 -->
<g id="node21" class="node"><title>N01111</title>
<polygon fill="none" stroke="black" points="235,-434 161,-434 161,-398 235,-398 235,-434"/>
<text text-anchor="middle" x="198" y="-411.9" font-family="Times Roman,serif" font-size="14.00">01111...</text>
</g>
<!-- N0111&#45;&gt;N01111 -->
<g id="edge20" class="edge"><title>N0111&#45;&gt;N01111</title>
<path fill="none" stroke="black" d="M154.219,-330.341C159.541,-340.755 173.388,-367.846 184.097,-388.799"/>
<polygon fill="black" stroke="black" points="181.087,-390.601 188.755,-397.912 187.321,-387.415 181.087,-390.601"/>
<text text-anchor="middle" x="184" y="-366.9" font-family="Times Roman,serif" font-size="14.00">1</text>
</g>
<!-- N110 -->
<g id="node27" class="node"><title>N110</title>
<ellipse fill="black" stroke="black" cx="233" cy="-236" rx="4.68" ry="4.68"/>
</g>
<!-- N11&#45;&gt;N110 -->
<g id="edge26" class="edge"><title>N11&#45;&gt;N110</title>
<path fill="none" stroke="black" d="M233,-150.839C233,-163.902 233,-200.293 233,-221.031"/>
<polygon fill="black" stroke="black" points="229.5,-221.137 233,-231.137 236.5,-221.137 229.5,-221.137"/>
<text text-anchor="middle" x="238" y="-186.9" font-family="Times Roman,serif" font-size="14.00">0</text>
</g>
<!-- N1100 -->
<g id="node29" class="node"><title>N1100</title>
<polygon fill="none" stroke="black" points="250,-344 184,-344 184,-308 250,-308 250,-344"/>
<text text-anchor="middle" x="217" y="-321.9" font-family="Times Roman,serif" font-size="14.00">1100...</text>
</g>
<!-- N110&#45;&gt;N1100 -->
<g id="edge28" class="edge"><title>N110&#45;&gt;N1100</title>
<path fill="none" stroke="black" d="M232.14,-240.839C230.26,-251.41 225.665,-277.258 222.027,-297.725"/>
<polygon fill="black" stroke="black" points="218.535,-297.37 220.231,-307.828 225.427,-298.595 218.535,-297.37"/>
<text text-anchor="middle" x="231" y="-276.9" font-family="Times Roman,serif" font-size="14.00">0</text>
</g>
<!-- N1101 -->
<g id="node31" class="node"><title>N1101</title>
<polygon fill="none" stroke="black" points="334,-344 268,-344 268,-308 334,-308 334,-344"/>
<text text-anchor="middle" x="301" y="-321.9" font-family="Times Roman,serif" font-size="14.00">1101...</text>
</g>
<!-- N110&#45;&gt;N1101 -->
<g id="edge30" class="edge"><title>N110&#45;&gt;N1101</title>
<path fill="none" stroke="black" d="M235.922,-239.867C243.597,-250.026 264.85,-278.155 280.999,-299.528"/>
<polygon fill="black" stroke="black" points="278.295,-301.756 287.116,-307.624 283.88,-297.536 278.295,-301.756"/>
<text text-anchor="middle" x="278" y="-276.9" font-family="Times Roman,serif" font-size="14.00">1</text>
</g>
</g>
</svg>
