<?xml version="1.0" encoding="UTF-8" standalone="no"?>
<!DOCTYPE svg PUBLIC "-//W3C//DTD SVG 1.1//EN"
 "http://www.w3.org/Graphics/SVG/1.1/DTD/svg11.dtd">
<!-- Generated by graphviz version 2.26.3 (20100126.1600)
 -->
<!-- Title: G Pages: 1 -->
<svg width="366pt" height="520pt"
 viewBox="0.00 0.00 366.00 520.00" xmlns="http://www.w3.org/2000/svg" xmlns:xlink="http://www.w3.org/1999/xlink">
<g id="graph1" class="graph" transform="scale(1 1) rotate(0) translate(4 516)">
<title>G</title>
<polygon fill="white" stroke="white" points="-4,5 -4,-516 363,-516 363,5 -4,5"/>
<!-- ROOT -->
<g id="node1" class="node"><title>ROOT</title>
<ellipse fill="black" stroke="black" cx="185" cy="-5" rx="4.68" ry="4.68"/>
</g>
<!-- N0 -->
<g id="node3" class="node"><title>N0</title>
<ellipse fill="black" stroke="black" cx="122" cy="-69" rx="4.68" ry="4.68"/>
</g>
<!-- ROOT&#45;&gt;N0 -->
<g id="edge2" class="edge"><title>ROOT&#45;&gt;N0</title>
<path fill="none" stroke="black" d="M181.613,-8.44092C172.469,-17.7303 146.995,-43.6086 132.478,-58.3553"/>
<polygon fill="black" stroke="black" points="129.925,-55.9602 125.404,-65.5421 134.913,-60.8708 129.925,-55.9602"/>
<text text-anchor="middle" x="165" y="-32.9" font-family="Times Roman,serif" font-size="14.00">0</text>
</g>
<!-- N1 -->
<g id="node5" class="node"><title>N1</title>
<ellipse fill="black" stroke="black" cx="230" cy="-69" rx="4.68" ry="4.68"/>
</g>
<!-- ROOT&#45;&gt;N1 -->
<g id="edge4" class="edge"><title>ROOT&#45;&gt;N1</title>
<path fill="none" stroke="brown" stroke-width="2" d="M187.953,-9.19922C194.625,-18.6891 211.082,-42.094 221.316,-56.6495"/>
<polygon fill="brown" stroke="brown" points="218.596,-58.8656 227.211,-65.0328 224.322,-54.8393 218.596,-58.8656"/>
<text text-anchor="middle" x="217" y="-32.9" font-family="Times Roman,serif" font-size="14.00">1</text>
</g>
<!-- N00 -->
<g id="node7" class="node"><title>N00</title>
<ellipse fill="black" stroke="black" cx="69" cy="-133" rx="4.68" ry="4.68"/>
</g>
<!-- N0&#45;&gt;N00 -->
<g id="edge6" class="edge"><title>N0&#45;&gt;N00</title>
<path fill="none" stroke="black" d="M118.843,-72.8118C111.092,-82.1715 90.8706,-106.59 78.6983,-121.289"/>
<polygon fill="black" stroke="black" points="75.7562,-119.354 72.0737,-129.288 81.1476,-123.819 75.7562,-119.354"/>
</g>
<!-- N01 -->
<g id="node9" class="node"><title>N01</title>
<ellipse fill="black" stroke="black" cx="122" cy="-133" rx="4.68" ry="4.68"/>
</g>
<!-- N0&#45;&gt;N01 -->
<g id="edge8" class="edge"><title>N0&#45;&gt;N01</title>
<path fill="none" stroke="black" d="M122,-74.022C122,-83.4148 122,-103.971 122,-118.151"/>
<polygon fill="black" stroke="black" points="118.5,-118.176 122,-128.176 125.5,-118.177 118.5,-118.176"/>
</g>
<!-- N10 -->
<g id="node47" class="node"><title>N10</title>
<ellipse fill="black" stroke="black" cx="230" cy="-133" rx="4.68" ry="4.68"/>
</g>
<!-- N1&#45;&gt;N10 -->
<g id="edge46" class="edge"><title>N1&#45;&gt;N10</title>
<path fill="none" stroke="red" stroke-width="2" d="M230,-74.022C230,-83.4148 230,-103.971 230,-118.151"/>
<polygon fill="red" stroke="red" points="226.5,-118.176 230,-128.176 233.5,-118.177 226.5,-118.176"/>
<text text-anchor="middle" x="235" y="-96.9" font-family="Times Roman,serif" font-size="14.00">0</text>
</g>
<!-- N11 -->
<g id="node49" class="node"><title>N11</title>
<ellipse fill="black" stroke="black" cx="282" cy="-133" rx="4.68" ry="4.68"/>
</g>
<!-- N1&#45;&gt;N11 -->
<g id="edge48" class="edge"><title>N1&#45;&gt;N11</title>
<path fill="none" stroke="blue" stroke-width="2" d="M233.097,-72.8118C240.702,-82.1715 260.542,-106.59 272.485,-121.289"/>
<polygon fill="blue" stroke="blue" points="269.962,-123.734 278.984,-129.288 275.395,-119.32 269.962,-123.734"/>
<text text-anchor="middle" x="267" y="-96.9" font-family="Times Roman,serif" font-size="14.00">1</text>
</g>
<!-- N000 -->
<g id="node11" class="node"><title>N000</title>
<ellipse fill="black" stroke="black" cx="30" cy="-197" rx="4.68" ry="4.68"/>
</g>
<!-- N00&#45;&gt;N000 -->
<g id="edge10" class="edge"><title>N00&#45;&gt;N000</title>
<path fill="none" stroke="black" d="M66.4411,-137.199C60.7684,-146.508 46.9361,-169.207 38.0387,-183.808"/>
<polygon fill="black" stroke="black" points="34.8344,-182.341 32.6195,-192.701 40.812,-185.983 34.8344,-182.341"/>
</g>
<!-- N001 -->
<g id="node13" class="node"><title>N001</title>
<ellipse fill="black" stroke="black" cx="69" cy="-197" rx="4.68" ry="4.68"/>
</g>
<!-- N00&#45;&gt;N001 -->
<g id="edge12" class="edge"><title>N00&#45;&gt;N001</title>
<path fill="none" stroke="black" d="M69,-138.022C69,-147.415 69,-167.971 69,-182.151"/>
<polygon fill="black" stroke="black" points="65.5001,-182.176 69,-192.176 72.5001,-182.177 65.5001,-182.176"/>
</g>
<!-- N010 -->
<g id="node27" class="node"><title>N010</title>
<ellipse fill="black" stroke="black" cx="108" cy="-197" rx="4.68" ry="4.68"/>
</g>
<!-- N01&#45;&gt;N010 -->
<g id="edge26" class="edge"><title>N01&#45;&gt;N010</title>
<path fill="none" stroke="black" d="M120.993,-137.603C118.995,-146.739 114.449,-167.52 111.302,-181.907"/>
<polygon fill="black" stroke="black" points="107.792,-181.574 109.074,-192.091 114.63,-183.07 107.792,-181.574"/>
</g>
<!-- N011 -->
<g id="node29" class="node"><title>N011</title>
<ellipse fill="black" stroke="black" cx="134" cy="-197" rx="4.68" ry="4.68"/>
</g>
<!-- N01&#45;&gt;N011 -->
<g id="edge28" class="edge"><title>N01&#45;&gt;N011</title>
<path fill="none" stroke="black" d="M122.863,-137.603C124.576,-146.739 128.473,-167.52 131.17,-181.907"/>
<polygon fill="black" stroke="black" points="127.797,-182.907 133.08,-192.091 134.677,-181.617 127.797,-182.907"/>
</g>
<!-- N0000 -->
<g id="node15" class="node"><title>N0000</title>
<polygon fill="none" stroke="black" points="8,-265.5 3.55271e-15,-265.5 0,-256.5 8,-256.5 8,-265.5"/>
</g>
<!-- N000&#45;&gt;N0000 -->
<g id="edge14" class="edge"><title>N000&#45;&gt;N0000</title>
<path fill="none" stroke="black" d="M28.1301,-201.603C24.3449,-210.92 15.6382,-232.352 9.78587,-246.758"/>
<polygon fill="black" stroke="black" points="6.37411,-245.857 5.85291,-256.439 12.8594,-248.492 6.37411,-245.857"/>
</g>
<!-- N0001 -->
<g id="node17" class="node"><title>N0001</title>
<polygon fill="none" stroke="black" points="34,-265.5 26,-265.5 26,-256.5 34,-256.5 34,-265.5"/>
</g>
<!-- N000&#45;&gt;N0001 -->
<g id="edge16" class="edge"><title>N000&#45;&gt;N0001</title>
<path fill="none" stroke="black" d="M30,-202.022C30,-211.415 30,-231.971 30,-246.151"/>
<polygon fill="black" stroke="black" points="26.5001,-246.176 30,-256.176 33.5001,-246.177 26.5001,-246.176"/>
</g>
<!-- N0010 -->
<g id="node19" class="node"><title>N0010</title>
<polygon fill="none" stroke="black" points="60,-265.5 52,-265.5 52,-256.5 60,-256.5 60,-265.5"/>
</g>
<!-- N001&#45;&gt;N0010 -->
<g id="edge18" class="edge"><title>N001&#45;&gt;N0010</title>
<path fill="none" stroke="black" d="M68.0651,-201.603C66.1912,-210.828 61.9051,-231.929 58.9803,-246.328"/>
<polygon fill="black" stroke="black" points="55.4872,-245.942 56.9265,-256.439 62.3471,-247.336 55.4872,-245.942"/>
</g>
<!-- N0011 -->
<g id="node21" class="node"><title>N0011</title>
<ellipse fill="black" stroke="black" cx="82" cy="-261" rx="4.68" ry="4.68"/>
</g>
<!-- N001&#45;&gt;N0011 -->
<g id="edge20" class="edge"><title>N001&#45;&gt;N0011</title>
<path fill="none" stroke="black" d="M69.9349,-201.603C71.7906,-210.739 76.0119,-231.52 78.9342,-245.907"/>
<polygon fill="black" stroke="black" points="75.5822,-246.988 81.0028,-256.091 82.4421,-245.594 75.5822,-246.988"/>
</g>
<!-- N00110 -->
<g id="node23" class="node"><title>N00110</title>
<polygon fill="none" stroke="black" points="60,-329.5 52,-329.5 52,-320.5 60,-320.5 60,-329.5"/>
</g>
<!-- N0011&#45;&gt;N00110 -->
<g id="edge22" class="edge"><title>N0011&#45;&gt;N00110</title>
<path fill="none" stroke="black" d="M80.1301,-265.603C76.3449,-274.92 67.6382,-296.352 61.7859,-310.758"/>
<polygon fill="black" stroke="black" points="58.3741,-309.857 57.8529,-320.439 64.8594,-312.492 58.3741,-309.857"/>
</g>
<!-- N00111 -->
<g id="node25" class="node"><title>N00111</title>
<polygon fill="none" stroke="black" points="86,-329.5 78,-329.5 78,-320.5 86,-320.5 86,-329.5"/>
</g>
<!-- N0011&#45;&gt;N00111 -->
<g id="edge24" class="edge"><title>N0011&#45;&gt;N00111</title>
<path fill="none" stroke="black" d="M82,-266.022C82,-275.415 82,-295.971 82,-310.151"/>
<polygon fill="black" stroke="black" points="78.5001,-310.176 82,-320.176 85.5001,-310.177 78.5001,-310.176"/>
</g>
<!-- N0101 -->
<g id="node31" class="node"><title>N0101</title>
<ellipse fill="black" stroke="black" cx="108" cy="-261" rx="4.68" ry="4.68"/>
</g>
<!-- N010&#45;&gt;N0101 -->
<g id="edge30" class="edge"><title>N010&#45;&gt;N0101</title>
<path fill="none" stroke="black" d="M108,-202.022C108,-211.415 108,-231.971 108,-246.151"/>
<polygon fill="black" stroke="black" points="104.5,-246.176 108,-256.176 111.5,-246.177 104.5,-246.176"/>
</g>
<!-- N0110 -->
<g id="node39" class="node"><title>N0110</title>
<ellipse fill="black" stroke="black" cx="134" cy="-261" rx="4.68" ry="4.68"/>
</g>
<!-- N011&#45;&gt;N0110 -->
<g id="edge38" class="edge"><title>N011&#45;&gt;N0110</title>
<path fill="none" stroke="black" d="M134,-202.022C134,-211.415 134,-231.971 134,-246.151"/>
<polygon fill="black" stroke="black" points="130.5,-246.176 134,-256.176 137.5,-246.177 130.5,-246.176"/>
</g>
<!-- N0111 -->
<g id="node41" class="node"><title>N0111</title>
<polygon fill="none" stroke="black" points="164,-265.5 156,-265.5 156,-256.5 164,-256.5 164,-265.5"/>
</g>
<!-- N011&#45;&gt;N0111 -->
<g id="edge40" class="edge"><title>N011&#45;&gt;N0111</title>
<path fill="none" stroke="black" d="M136.408,-201.146C138.984,-205.681 143.09,-213.211 146,-220 149.664,-228.546 153.054,-238.4 155.58,-246.305"/>
<polygon fill="black" stroke="black" points="152.311,-247.583 158.595,-256.113 159.002,-245.526 152.311,-247.583"/>
</g>
<!-- N01010 -->
<g id="node33" class="node"><title>N01010</title>
<ellipse fill="black" stroke="black" cx="108" cy="-325" rx="4.68" ry="4.68"/>
</g>
<!-- N0101&#45;&gt;N01010 -->
<g id="edge32" class="edge"><title>N0101&#45;&gt;N01010</title>
<path fill="none" stroke="black" d="M108,-266.022C108,-275.415 108,-295.971 108,-310.151"/>
<polygon fill="black" stroke="black" points="104.5,-310.176 108,-320.176 111.5,-310.177 104.5,-310.176"/>
</g>
<!-- N010100 -->
<g id="node35" class="node"><title>N010100</title>
<polygon fill="none" stroke="black" points="99,-393.5 91,-393.5 91,-384.5 99,-384.5 99,-393.5"/>
</g>
<!-- N01010&#45;&gt;N010100 -->
<g id="edge34" class="edge"><title>N01010&#45;&gt;N010100</title>
<path fill="none" stroke="black" d="M107.065,-329.603C105.191,-338.828 100.905,-359.929 97.9803,-374.328"/>
<polygon fill="black" stroke="black" points="94.4872,-373.942 95.9265,-384.439 101.347,-375.336 94.4872,-373.942"/>
</g>
<!-- N010101 -->
<g id="node37" class="node"><title>N010101</title>
<polygon fill="none" stroke="black" points="125,-393.5 117,-393.5 117,-384.5 125,-384.5 125,-393.5"/>
</g>
<!-- N01010&#45;&gt;N010101 -->
<g id="edge36" class="edge"><title>N01010&#45;&gt;N010101</title>
<path fill="none" stroke="black" d="M108.935,-329.603C110.809,-338.828 115.095,-359.929 118.02,-374.328"/>
<polygon fill="black" stroke="black" points="114.653,-375.336 120.074,-384.439 121.513,-373.942 114.653,-375.336"/>
</g>
<!-- N01100 -->
<g id="node43" class="node"><title>N01100</title>
<polygon fill="none" stroke="black" points="138,-329.5 130,-329.5 130,-320.5 138,-320.5 138,-329.5"/>
</g>
<!-- N0110&#45;&gt;N01100 -->
<g id="edge42" class="edge"><title>N0110&#45;&gt;N01100</title>
<path fill="none" stroke="black" d="M134,-266.022C134,-275.415 134,-295.971 134,-310.151"/>
<polygon fill="black" stroke="black" points="130.5,-310.176 134,-320.176 137.5,-310.177 130.5,-310.176"/>
</g>
<!-- N01101 -->
<g id="node45" class="node"><title>N01101</title>
<polygon fill="none" stroke="black" points="164,-329.5 156,-329.5 156,-320.5 164,-320.5 164,-329.5"/>
</g>
<!-- N0110&#45;&gt;N01101 -->
<g id="edge44" class="edge"><title>N0110&#45;&gt;N01101</title>
<path fill="none" stroke="black" d="M136.408,-265.146C138.984,-269.681 143.09,-277.211 146,-284 149.664,-292.546 153.054,-302.4 155.58,-310.305"/>
<polygon fill="black" stroke="black" points="152.311,-311.583 158.595,-320.113 159.002,-309.526 152.311,-311.583"/>
</g>
<!-- N100 -->
<g id="node51" class="node"><title>N100</title>
<ellipse fill="black" stroke="black" cx="218" cy="-197" rx="4.68" ry="4.68"/>
</g>
<!-- N10&#45;&gt;N100 -->
<g id="edge50" class="edge"><title>N10&#45;&gt;N100</title>
<path fill="none" stroke="red" stroke-width="2" d="M227.415,-137.041C224.73,-141.487 220.692,-148.941 219,-156 216.972,-164.46 216.652,-174.185 216.872,-182.039"/>
<polygon fill="red" stroke="red" points="213.384,-182.342 217.468,-192.118 220.371,-181.929 213.384,-182.342"/>
<text text-anchor="middle" x="224" y="-160.9" font-family="Times Roman,serif" font-size="14.00">0</text>
</g>
<!-- N101 -->
<g id="node53" class="node"><title>N101</title>
<ellipse fill="black" stroke="black" cx="244" cy="-197" rx="4.68" ry="4.68"/>
</g>
<!-- N10&#45;&gt;N101 -->
<g id="edge52" class="edge"><title>N10&#45;&gt;N101</title>
<path fill="none" stroke="black" d="M231.007,-137.603C233.005,-146.739 237.551,-167.52 240.698,-181.907"/>
<polygon fill="black" stroke="black" points="237.37,-183.07 242.926,-192.091 244.208,-181.574 237.37,-183.07"/>
</g>
<!-- N110 -->
<g id="node79" class="node"><title>N110</title>
<ellipse fill="black" stroke="black" cx="282" cy="-197" rx="4.68" ry="4.68"/>
</g>
<!-- N11&#45;&gt;N110 -->
<g id="edge78" class="edge"><title>N11&#45;&gt;N110</title>
<path fill="none" stroke="blue" stroke-width="2" d="M282,-138.022C282,-147.415 282,-167.971 282,-182.151"/>
<polygon fill="blue" stroke="blue" points="278.5,-182.176 282,-192.176 285.5,-182.177 278.5,-182.176"/>
<text text-anchor="middle" x="287" y="-160.9" font-family="Times Roman,serif" font-size="14.00">0</text>
</g>
<!-- N111 -->
<g id="node95" class="node"><title>N111</title>
<ellipse fill="black" stroke="black" cx="321" cy="-197" rx="4.68" ry="4.68"/>
</g>
<!-- N11&#45;&gt;N111 -->
<g id="edge94" class="edge"><title>N11&#45;&gt;N111</title>
<path fill="none" stroke="black" d="M284.559,-137.199C290.232,-146.508 304.064,-169.207 312.961,-183.808"/>
<polygon fill="black" stroke="black" points="310.188,-185.983 318.381,-192.701 316.166,-182.341 310.188,-185.983"/>
</g>
<!-- N1000 -->
<g id="node55" class="node"><title>N1000</title>
<ellipse fill="black" stroke="black" cx="193" cy="-261" rx="0.036" ry="0.036"/>
</g>
<!-- N100&#45;&gt;N1000 -->
<g id="edge54" class="edge"><title>N100&#45;&gt;N1000</title>
<path fill="none" stroke="red" stroke-width="2" stroke-dasharray="5,2" d="M215.044,-201.046C211.914,-205.495 207.017,-212.952 204,-220 199.673,-230.108 196.654,-242.359 194.887,-250.822"/>
<polygon fill="red" stroke="red" points="191.395,-250.461 193.01,-260.932 198.277,-251.738 191.395,-250.461"/>
<text text-anchor="middle" x="209" y="-224.9" font-family="Times Roman,serif" font-size="14.00">0</text>
</g>
<!-- N1001 -->
<g id="node65" class="node"><title>N1001</title>
<ellipse fill="black" stroke="black" cx="218" cy="-261" rx="4.68" ry="4.68"/>
</g>
<!-- N100&#45;&gt;N1001 -->
<g id="edge64" class="edge"><title>N100&#45;&gt;N1001</title>
<path fill="none" stroke="black" d="M218,-202.022C218,-211.415 218,-231.971 218,-246.151"/>
<polygon fill="black" stroke="black" points="214.5,-246.176 218,-256.176 221.5,-246.177 214.5,-246.176"/>
</g>
<!-- N1011 -->
<g id="node71" class="node"><title>N1011</title>
<ellipse fill="black" stroke="black" cx="244" cy="-261" rx="4.68" ry="4.68"/>
</g>
<!-- N101&#45;&gt;N1011 -->
<g id="edge70" class="edge"><title>N101&#45;&gt;N1011</title>
<path fill="none" stroke="black" d="M244,-202.022C244,-211.415 244,-231.971 244,-246.151"/>
<polygon fill="black" stroke="black" points="240.5,-246.176 244,-256.176 247.5,-246.177 240.5,-246.176"/>
</g>
<!-- N10001 -->
<g id="node57" class="node"><title>N10001</title>
<ellipse fill="black" stroke="black" cx="193" cy="-325" rx="0.036" ry="0.036"/>
</g>
<!-- N1000&#45;&gt;N10001 -->
<g id="edge56" class="edge"><title>N1000&#45;&gt;N10001</title>
<path fill="none" stroke="red" stroke-width="2" stroke-dasharray="5,2" d="M193,-261.046C193,-262.485 193,-297.011 193,-314.722"/>
<polygon fill="red" stroke="red" points="189.5,-314.955 193,-324.955 196.5,-314.955 189.5,-314.955"/>
<text text-anchor="middle" x="198" y="-288.9" font-family="Times Roman,serif" font-size="14.00">1</text>
</g>
<!-- N100010 -->
<g id="node59" class="node"><title>N100010</title>
<ellipse fill="black" stroke="black" cx="193" cy="-389" rx="0.036" ry="0.036"/>
</g>
<!-- N10001&#45;&gt;N100010 -->
<g id="edge58" class="edge"><title>N10001&#45;&gt;N100010</title>
<path fill="none" stroke="red" stroke-width="2" stroke-dasharray="5,2" d="M193,-325.046C193,-326.485 193,-361.011 193,-378.722"/>
<polygon fill="red" stroke="red" points="189.5,-378.955 193,-388.955 196.5,-378.955 189.5,-378.955"/>
<text text-anchor="middle" x="198" y="-352.9" font-family="Times Roman,serif" font-size="14.00">0</text>
</g>
<!-- N1000100 -->
<g id="node61" class="node"><title>N1000100</title>
<ellipse fill="black" stroke="black" cx="193" cy="-453" rx="0.036" ry="0.036"/>
</g>
<!-- N100010&#45;&gt;N1000100 -->
<g id="edge60" class="edge"><title>N100010&#45;&gt;N1000100</title>
<path fill="none" stroke="red" stroke-width="2" stroke-dasharray="5,2" d="M193,-389.046C193,-390.485 193,-425.011 193,-442.722"/>
<polygon fill="red" stroke="red" points="189.5,-442.955 193,-452.955 196.5,-442.955 189.5,-442.955"/>
<text text-anchor="middle" x="198" y="-416.9" font-family="Times Roman,serif" font-size="14.00">0</text>
</g>
<!-- N10001001 -->
<g id="node63" class="node"><title>N10001001</title>
<ellipse fill="black" stroke="black" cx="193" cy="-512" rx="0.036" ry="0.036"/>
</g>
<!-- N1000100&#45;&gt;N10001001 -->
<g id="edge62" class="edge"><title>N1000100&#45;&gt;N10001001</title>
<path fill="none" stroke="red" stroke-width="2" stroke-dasharray="5,2" d="M193,-453.169C193,-455.684 193,-485.601 193,-501.774"/>
<polygon fill="red" stroke="red" points="189.5,-501.841 193,-511.841 196.5,-501.841 189.5,-501.841"/>
<text text-anchor="middle" x="196.5" y="-480.9" font-family="Times Roman,serif" font-size="14.00">s</text>
</g>
<!-- N10010 -->
<g id="node67" class="node"><title>N10010</title>
<polygon fill="none" stroke="black" points="221,-329.5 213,-329.5 213,-320.5 221,-320.5 221,-329.5"/>
</g>
<!-- N1001&#45;&gt;N10010 -->
<g id="edge66" class="edge"><title>N1001&#45;&gt;N10010</title>
<path fill="none" stroke="black" d="M217.922,-266.022C217.775,-275.415 217.454,-295.971 217.232,-310.151"/>
<polygon fill="black" stroke="black" points="213.732,-310.123 217.075,-320.176 220.731,-310.232 213.732,-310.123"/>
</g>
<!-- N10011 -->
<g id="node69" class="node"><title>N10011</title>
<polygon fill="none" stroke="black" points="247,-329.5 239,-329.5 239,-320.5 247,-320.5 247,-329.5"/>
</g>
<!-- N1001&#45;&gt;N10011 -->
<g id="edge68" class="edge"><title>N1001&#45;&gt;N10011</title>
<path fill="none" stroke="black" d="M220.178,-265.172C222.514,-269.73 226.256,-277.279 229,-284 232.514,-292.609 235.899,-302.464 238.46,-310.355"/>
<polygon fill="black" stroke="black" points="235.198,-311.649 241.542,-320.135 241.875,-309.546 235.198,-311.649"/>
</g>
<!-- N10110 -->
<g id="node73" class="node"><title>N10110</title>
<ellipse fill="black" stroke="black" cx="269" cy="-325" rx="4.68" ry="4.68"/>
</g>
<!-- N1011&#45;&gt;N10110 -->
<g id="edge72" class="edge"><title>N1011&#45;&gt;N10110</title>
<path fill="none" stroke="black" d="M245.798,-265.603C249.438,-274.92 257.809,-296.352 263.437,-310.758"/>
<polygon fill="black" stroke="black" points="260.32,-312.398 267.218,-320.439 266.84,-309.851 260.32,-312.398"/>
</g>
<!-- N101100 -->
<g id="node75" class="node"><title>N101100</title>
<polygon fill="none" stroke="black" points="247,-393.5 239,-393.5 239,-384.5 247,-384.5 247,-393.5"/>
</g>
<!-- N10110&#45;&gt;N101100 -->
<g id="edge74" class="edge"><title>N10110&#45;&gt;N101100</title>
<path fill="none" stroke="black" d="M267.13,-329.603C263.345,-338.92 254.638,-360.352 248.786,-374.758"/>
<polygon fill="black" stroke="black" points="245.374,-373.857 244.853,-384.439 251.859,-376.492 245.374,-373.857"/>
</g>
<!-- N101101 -->
<g id="node77" class="node"><title>N101101</title>
<polygon fill="none" stroke="black" points="273,-393.5 265,-393.5 265,-384.5 273,-384.5 273,-393.5"/>
</g>
<!-- N10110&#45;&gt;N101101 -->
<g id="edge76" class="edge"><title>N10110&#45;&gt;N101101</title>
<path fill="none" stroke="black" d="M269,-330.022C269,-339.415 269,-359.971 269,-374.151"/>
<polygon fill="black" stroke="black" points="265.5,-374.176 269,-384.176 272.5,-374.177 265.5,-374.176"/>
</g>
<!-- N1100 -->
<g id="node81" class="node"><title>N1100</title>
<polygon fill="none" stroke="black" points="274,-265.5 266,-265.5 266,-256.5 274,-256.5 274,-265.5"/>
</g>
<!-- N110&#45;&gt;N1100 -->
<g id="edge80" class="edge"><title>N110&#45;&gt;N1100</title>
<path fill="none" stroke="black" d="M281.137,-201.603C279.407,-210.828 275.451,-231.929 272.751,-246.328"/>
<polygon fill="black" stroke="black" points="269.258,-245.965 270.855,-256.439 276.138,-247.255 269.258,-245.965"/>
</g>
<!-- N1101 -->
<g id="node83" class="node"><title>N1101</title>
<ellipse fill="black" stroke="black" cx="302" cy="-261" rx="4.68" ry="4.68"/>
</g>
<!-- N110&#45;&gt;N1101 -->
<g id="edge82" class="edge"><title>N110&#45;&gt;N1101</title>
<path fill="none" stroke="blue" stroke-width="2" d="M283.438,-201.603C286.35,-210.92 293.048,-232.352 297.549,-246.758"/>
<polygon fill="blue" stroke="blue" points="294.251,-247.938 300.575,-256.439 300.933,-245.85 294.251,-247.938"/>
<text text-anchor="middle" x="299" y="-224.9" font-family="Times Roman,serif" font-size="14.00">1</text>
</g>
<!-- N11010 -->
<g id="node85" class="node"><title>N11010</title>
<ellipse fill="black" stroke="black" cx="302" cy="-325" rx="4.68" ry="4.68"/>
</g>
<!-- N1101&#45;&gt;N11010 -->
<g id="edge84" class="edge"><title>N1101&#45;&gt;N11010</title>
<path fill="none" stroke="blue" stroke-width="2" d="M302,-266.022C302,-275.415 302,-295.971 302,-310.151"/>
<polygon fill="blue" stroke="blue" points="298.5,-310.176 302,-320.176 305.5,-310.177 298.5,-310.176"/>
<text text-anchor="middle" x="307" y="-288.9" font-family="Times Roman,serif" font-size="14.00">0</text>
</g>
<!-- N110101 -->
<g id="node87" class="node"><title>N110101</title>
<ellipse fill="black" stroke="black" cx="302" cy="-389" rx="4.68" ry="4.68"/>
</g>
<!-- N11010&#45;&gt;N110101 -->
<g id="edge86" class="edge"><title>N11010&#45;&gt;N110101</title>
<path fill="none" stroke="blue" stroke-width="2" d="M302,-330.022C302,-339.415 302,-359.971 302,-374.151"/>
<polygon fill="blue" stroke="blue" points="298.5,-374.176 302,-384.176 305.5,-374.177 298.5,-374.176"/>
<text text-anchor="middle" x="307" y="-352.9" font-family="Times Roman,serif" font-size="14.00">1</text>
</g>
<!-- N1101010 -->
<g id="node89" class="node"><title>N1101010</title>
<polygon fill="none" stroke="black" points="289,-457.5 281,-457.5 281,-448.5 289,-448.5 289,-457.5"/>
</g>
<!-- N110101&#45;&gt;N1101010 -->
<g id="edge88" class="edge"><title>N110101&#45;&gt;N1101010</title>
<path fill="none" stroke="black" d="M300.777,-393.603C298.302,-402.92 292.61,-424.352 288.783,-438.758"/>
<polygon fill="black" stroke="black" points="285.396,-437.876 286.212,-448.439 292.162,-439.673 285.396,-437.876"/>
</g>
<!-- N1101011 -->
<g id="node91" class="node"><title>N1101011</title>
<polygon fill="none" stroke="black" points="322,-457.5 314,-457.5 314,-448.5 322,-448.5 322,-457.5"/>
</g>
<!-- N110101&#45;&gt;N1101011 -->
<g id="edge90" class="edge"><title>N110101&#45;&gt;N1101011</title>
<path fill="none" stroke="blue" stroke-width="2" d="M303.151,-393.603C305.457,-402.828 310.732,-423.929 314.332,-438.328"/>
<polygon fill="blue" stroke="blue" points="311.039,-439.586 316.86,-448.439 317.83,-437.889 311.039,-439.586"/>
<text text-anchor="middle" x="316" y="-416.9" font-family="Times Roman,serif" font-size="14.00">1</text>
</g>
<!-- N11010110 -->
<g id="node93" class="node"><title>N11010110</title>
<ellipse fill="black" stroke="black" cx="318" cy="-512" rx="0.036" ry="0.036"/>
</g>
<!-- N1101011&#45;&gt;N11010110 -->
<g id="edge92" class="edge"><title>N1101011&#45;&gt;N11010110</title>
<path fill="none" stroke="blue" stroke-width="2" stroke-dasharray="5,2" d="M318,-457.63C318,-467.104 318,-488.897 318,-501.832"/>
<polygon fill="blue" stroke="blue" points="314.5,-501.883 318,-511.884 321.5,-501.884 314.5,-501.883"/>
<text text-anchor="middle" x="321.5" y="-480.9" font-family="Times Roman,serif" font-size="14.00">t</text>
</g>
<!-- N1111 -->
<g id="node96" class="node"><title>N1111</title>
<ellipse fill="black" stroke="black" cx="328" cy="-261" rx="4.68" ry="4.68"/>
</g>
<!-- N111&#45;&gt;N1111 -->
<g id="edge95" class="edge"><title>N111&#45;&gt;N1111</title>
<path fill="none" stroke="black" d="M321.549,-202.022C322.577,-211.415 324.825,-231.971 326.376,-246.151"/>
<polygon fill="black" stroke="black" points="322.906,-246.616 327.472,-256.176 329.864,-245.855 322.906,-246.616"/>
</g>
<!-- N11110 -->
<g id="node98" class="node"><title>N11110</title>
<ellipse fill="black" stroke="black" cx="328" cy="-325" rx="4.68" ry="4.68"/>
</g>
<!-- N1111&#45;&gt;N11110 -->
<g id="edge97" class="edge"><title>N1111&#45;&gt;N11110</title>
<path fill="none" stroke="black" d="M328,-266.022C328,-275.415 328,-295.971 328,-310.151"/>
<polygon fill="black" stroke="black" points="324.5,-310.176 328,-320.176 331.5,-310.177 324.5,-310.176"/>
</g>
<!-- N11111 -->
<g id="node104" class="node"><title>N11111</title>
<polygon fill="none" stroke="black" points="358,-329.5 350,-329.5 350,-320.5 358,-320.5 358,-329.5"/>
</g>
<!-- N1111&#45;&gt;N11111 -->
<g id="edge103" class="edge"><title>N1111&#45;&gt;N11111</title>
<path fill="none" stroke="black" d="M330.408,-265.146C332.984,-269.681 337.09,-277.211 340,-284 343.664,-292.546 347.054,-302.4 349.58,-310.305"/>
<polygon fill="black" stroke="black" points="346.311,-311.583 352.595,-320.113 353.002,-309.526 346.311,-311.583"/>
</g>
<!-- N111100 -->
<g id="node100" class="node"><title>N111100</title>
<polygon fill="none" stroke="black" points="332,-393.5 324,-393.5 324,-384.5 332,-384.5 332,-393.5"/>
</g>
<!-- N11110&#45;&gt;N111100 -->
<g id="edge99" class="edge"><title>N11110&#45;&gt;N111100</title>
<path fill="none" stroke="black" d="M328,-330.022C328,-339.415 328,-359.971 328,-374.151"/>
<polygon fill="black" stroke="black" points="324.5,-374.176 328,-384.176 331.5,-374.177 324.5,-374.176"/>
</g>
<!-- N111101 -->
<g id="node102" class="node"><title>N111101</title>
<polygon fill="none" stroke="black" points="358,-393.5 350,-393.5 350,-384.5 358,-384.5 358,-393.5"/>
</g>
<!-- N11110&#45;&gt;N111101 -->
<g id="edge101" class="edge"><title>N11110&#45;&gt;N111101</title>
<path fill="none" stroke="black" d="M330.408,-329.146C332.984,-333.681 337.09,-341.211 340,-348 343.664,-356.546 347.054,-366.4 349.58,-374.305"/>
<polygon fill="black" stroke="black" points="346.311,-375.583 352.595,-384.113 353.002,-373.526 346.311,-375.583"/>
</g>
</g>
</svg>
