<?xml version="1.0" encoding="UTF-8" standalone="no"?>
<!DOCTYPE svg PUBLIC "-//W3C//DTD SVG 1.1//EN"
 "http://www.w3.org/Graphics/SVG/1.1/DTD/svg11.dtd">
<!-- Generated by graphviz version 2.26.3 (20100126.1600)
 -->
<!-- Title: G Pages: 1 -->
<svg width="306pt" height="352pt"
 viewBox="0.00 0.00 306.00 352.00" xmlns="http://www.w3.org/2000/svg" xmlns:xlink="http://www.w3.org/1999/xlink">
<g id="graph1" class="graph" transform="scale(1 1) rotate(0) translate(4 348)">
<title>G</title>
<polygon fill="white" stroke="white" points="-4,5 -4,-348 303,-348 303,5 -4,5"/>
<!-- ROOT -->
<g id="node1" class="node"><title>ROOT</title>
<ellipse fill="black" stroke="black" cx="147" cy="-5" rx="4.68" ry="4.68"/>
</g>
<!-- N0 -->
<g id="node3" class="node"><title>N0</title>
<ellipse fill="black" stroke="black" cx="111" cy="-69" rx="4.68" ry="4.68"/>
</g>
<!-- ROOT&#45;&gt;N0 -->
<g id="edge2" class="edge"><title>ROOT&#45;&gt;N0</title>
<path fill="none" stroke="black" d="M144.638,-9.19922C139.402,-18.5083 126.633,-41.2075 118.42,-55.8083"/>
<polygon fill="black" stroke="black" points="115.27,-54.2697 113.418,-64.7014 121.371,-57.7016 115.27,-54.2697"/>
<text text-anchor="middle" x="139" y="-32.9" font-family="Times Roman,serif" font-size="14.00">0</text>
</g>
<!-- N1 -->
<g id="node5" class="node"><title>N1</title>
<ellipse fill="black" stroke="black" cx="177" cy="-69" rx="4.68" ry="4.68"/>
</g>
<!-- ROOT&#45;&gt;N1 -->
<g id="edge4" class="edge"><title>ROOT&#45;&gt;N1</title>
<path fill="none" stroke="black" d="M149.158,-9.60272C153.568,-19.0126 163.771,-40.7777 170.524,-55.1837"/>
<polygon fill="black" stroke="black" points="167.449,-56.8699 174.862,-64.439 173.787,-53.8988 167.449,-56.8699"/>
<text text-anchor="middle" x="170" y="-32.9" font-family="Times Roman,serif" font-size="14.00">1</text>
</g>
<!-- N00 -->
<g id="node7" class="node"><title>N00</title>
<ellipse fill="black" stroke="black" cx="65" cy="-146" rx="4.68" ry="4.68"/>
</g>
<!-- N0&#45;&gt;N00 -->
<g id="edge6" class="edge"><title>N0&#45;&gt;N00</title>
<path fill="none" stroke="black" d="M108.405,-73.23C105.583,-77.8371 100.947,-85.4279 97,-92 88.581,-106.017 79.0379,-122.154 72.5807,-133.11"/>
<polygon fill="black" stroke="black" points="69.5287,-131.395 67.4726,-141.789 75.5614,-134.946 69.5287,-131.395"/>
<text text-anchor="middle" x="102" y="-96.9" font-family="Times Roman,serif" font-size="14.00">0</text>
</g>
<!-- N01 -->
<g id="node13" class="node"><title>N01</title>
<polygon fill="none" stroke="black" points="135,-164 87,-164 87,-128 135,-128 135,-164"/>
<text text-anchor="middle" x="111" y="-141.9" font-family="Times Roman,serif" font-size="14.00">01...</text>
</g>
<!-- N0&#45;&gt;N01 -->
<g id="edge12" class="edge"><title>N0&#45;&gt;N01</title>
<path fill="none" stroke="black" d="M111,-74.0522C111,-82.8349 111,-101.524 111,-117.653"/>
<polygon fill="black" stroke="black" points="107.5,-117.752 111,-127.752 114.5,-117.752 107.5,-117.752"/>
<text text-anchor="middle" x="116" y="-96.9" font-family="Times Roman,serif" font-size="14.00">1</text>
</g>
<!-- N10 -->
<g id="node15" class="node"><title>N10</title>
<polygon fill="none" stroke="black" points="201,-164 153,-164 153,-128 201,-128 201,-164"/>
<text text-anchor="middle" x="177" y="-141.9" font-family="Times Roman,serif" font-size="14.00">10...</text>
</g>
<!-- N1&#45;&gt;N10 -->
<g id="edge14" class="edge"><title>N1&#45;&gt;N10</title>
<path fill="none" stroke="black" d="M177,-74.0522C177,-82.8349 177,-101.524 177,-117.653"/>
<polygon fill="black" stroke="black" points="173.5,-117.752 177,-127.752 180.5,-117.752 173.5,-117.752"/>
<text text-anchor="middle" x="182" y="-96.9" font-family="Times Roman,serif" font-size="14.00">0</text>
</g>
<!-- N11 -->
<g id="node17" class="node"><title>N11</title>
<ellipse fill="black" stroke="black" cx="223" cy="-146" rx="4.68" ry="4.68"/>
</g>
<!-- N1&#45;&gt;N11 -->
<g id="edge16" class="edge"><title>N1&#45;&gt;N11</title>
<path fill="none" stroke="black" d="M179.595,-73.23C182.417,-77.8371 187.053,-85.4279 191,-92 199.419,-106.017 208.962,-122.154 215.419,-133.11"/>
<polygon fill="black" stroke="black" points="212.439,-134.946 220.527,-141.789 218.471,-131.395 212.439,-134.946"/>
<text text-anchor="middle" x="206" y="-96.9" font-family="Times Roman,serif" font-size="14.00">1</text>
</g>
<!-- N000 -->
<g id="node9" class="node"><title>N000</title>
<polygon fill="none" stroke="black" points="56,-254 2.4869e-14,-254 0,-218 56,-218 56,-254"/>
<text text-anchor="middle" x="28" y="-231.9" font-family="Times Roman,serif" font-size="14.00">000...</text>
</g>
<!-- N00&#45;&gt;N000 -->
<g id="edge8" class="edge"><title>N00&#45;&gt;N000</title>
<path fill="none" stroke="black" d="M63.2154,-150.341C58.9535,-160.708 47.897,-187.602 39.2992,-208.515"/>
<polygon fill="black" stroke="black" points="36.0013,-207.333 35.436,-217.912 42.4756,-209.994 36.0013,-207.333"/>
<text text-anchor="middle" x="55" y="-186.9" font-family="Times Roman,serif" font-size="14.00">0</text>
</g>
<!-- N001 -->
<g id="node11" class="node"><title>N001</title>
<polygon fill="none" stroke="black" points="130,-254 74,-254 74,-218 130,-218 130,-254"/>
<text text-anchor="middle" x="102" y="-231.9" font-family="Times Roman,serif" font-size="14.00">001...</text>
</g>
<!-- N00&#45;&gt;N001 -->
<g id="edge10" class="edge"><title>N00&#45;&gt;N001</title>
<path fill="none" stroke="black" d="M66.7846,-150.341C71.0465,-160.708 82.103,-187.602 90.7008,-208.515"/>
<polygon fill="black" stroke="black" points="87.5244,-209.994 94.564,-217.912 93.9987,-207.333 87.5244,-209.994"/>
<text text-anchor="middle" x="92" y="-186.9" font-family="Times Roman,serif" font-size="14.00">1</text>
</g>
<!-- N110 -->
<g id="node19" class="node"><title>N110</title>
<ellipse fill="black" stroke="black" cx="223" cy="-236" rx="4.68" ry="4.68"/>
</g>
<!-- N11&#45;&gt;N110 -->
<g id="edge18" class="edge"><title>N11&#45;&gt;N110</title>
<path fill="none" stroke="black" d="M223,-150.839C223,-163.902 223,-200.293 223,-221.031"/>
<polygon fill="black" stroke="black" points="219.5,-221.137 223,-231.137 226.5,-221.137 219.5,-221.137"/>
<text text-anchor="middle" x="228" y="-186.9" font-family="Times Roman,serif" font-size="14.00">0</text>
</g>
<!-- N1100 -->
<g id="node21" class="node"><title>N1100</title>
<polygon fill="none" stroke="black" points="214,-344 148,-344 148,-308 214,-308 214,-344"/>
<text text-anchor="middle" x="181" y="-321.9" font-family="Times Roman,serif" font-size="14.00">1100...</text>
</g>
<!-- N110&#45;&gt;N1100 -->
<g id="edge20" class="edge"><title>N110&#45;&gt;N1100</title>
<path fill="none" stroke="black" d="M220.974,-240.341C216.115,-250.755 203.472,-277.846 193.694,-298.799"/>
<polygon fill="black" stroke="black" points="190.498,-297.37 189.441,-307.912 196.841,-300.331 190.498,-297.37"/>
<text text-anchor="middle" x="210" y="-276.9" font-family="Times Roman,serif" font-size="14.00">0</text>
</g>
<!-- N1101 -->
<g id="node23" class="node"><title>N1101</title>
<polygon fill="none" stroke="black" points="298,-344 232,-344 232,-308 298,-308 298,-344"/>
<text text-anchor="middle" x="265" y="-321.9" font-family="Times Roman,serif" font-size="14.00">1101...</text>
</g>
<!-- N110&#45;&gt;N1101 -->
<g id="edge22" class="edge"><title>N110&#45;&gt;N1101</title>
<path fill="none" stroke="black" d="M225.026,-240.341C229.885,-250.755 242.528,-277.846 252.306,-298.799"/>
<polygon fill="black" stroke="black" points="249.159,-300.331 256.559,-307.912 255.502,-297.37 249.159,-300.331"/>
<text text-anchor="middle" x="252" y="-276.9" font-family="Times Roman,serif" font-size="14.00">1</text>
</g>
</g>
</svg>
