<?xml version="1.0" encoding="UTF-8" standalone="no"?>
<!-- Created with Inkscape (http://www.inkscape.org/) -->

<svg
   xmlns:dc="http://purl.org/dc/elements/1.1/"
   xmlns:cc="http://creativecommons.org/ns#"
   xmlns:rdf="http://www.w3.org/1999/02/22-rdf-syntax-ns#"
   xmlns:svg="http://www.w3.org/2000/svg"
   xmlns="http://www.w3.org/2000/svg"
   xmlns:sodipodi="http://sodipodi.sourceforge.net/DTD/sodipodi-0.dtd"
   xmlns:inkscape="http://www.inkscape.org/namespaces/inkscape"
   width="672.09003"
   height="550"
   id="svg2"
   version="1.1"
   inkscape:version="0.48.3.1 r9886"
   sodipodi:docname="infiniteComb.svg">
  <defs
     id="defs4">
    <clipPath
       id="clipPath3020"
       clipPathUnits="userSpaceOnUse">
      <path
         id="path3022"
         d="M 0,0 462,0 462,401 0,401 0,0 z"
         inkscape:connector-curvature="0" />
    </clipPath>
  </defs>
  <sodipodi:namedview
     id="base"
     pagecolor="#ffffff"
     bordercolor="#666666"
     borderopacity="1.0"
     inkscape:pageopacity="0.0"
     inkscape:pageshadow="2"
     inkscape:zoom="0.35"
     inkscape:cx="386.42858"
     inkscape:cy="514.28571"
     inkscape:document-units="px"
     inkscape:current-layer="layer1"
     showgrid="false"
     inkscape:window-width="928"
     inkscape:window-height="798"
     inkscape:window-x="3"
     inkscape:window-y="48"
     inkscape:window-maximized="0" />
  <metadata
     id="metadata7">
    <rdf:RDF>
      <cc:Work
         rdf:about="">
        <dc:format>image/svg+xml</dc:format>
        <dc:type
           rdf:resource="http://purl.org/dc/dcmitype/StillImage" />
        <dc:title />
      </cc:Work>
    </rdf:RDF>
  </metadata>
  <g
     inkscape:label="Layer 1"
     inkscape:groupmode="layer"
     id="layer1"
     transform="translate(0,-502.36129)">
    <g
       transform="matrix(1.25,0,0,-1.25,43.496072,1025.6725)"
       inkscape:label="infiniteComb"
       id="g3012">
      <g
         id="g3014" />
      <g
         id="g3016">
        <g
           clip-path="url(#clipPath3020)"
           id="g3018">
          <g
             transform="matrix(0,-1,1,0,0,401)"
             id="g3024">
            <text
               id="text3026"
               transform="matrix(0,1,1,0,392,0)">
              <tspan
                 id="tspan3028"
                 y="0"
                 x="0"
                 style="font-size:21.60000038px;font-variant:normal;font-weight:normal;writing-mode:lr-tb;fill:#000000;fill-opacity:1;fill-rule:nonzero;stroke:none;font-family:Times;-inkscape-font-specification:Times-Roman">q</tspan>
            </text>
          </g>
          <path
             id="path3030"
             style="fill:#000000;fill-opacity:1;fill-rule:evenodd;stroke:none"
             d="m 310.5,324 c 0,-2.4852 -2.015,-4.5 -4.5,-4.5 -2.485,0 -4.5,2.0148 -4.5,4.5 0,2.4852 2.015,4.5 4.5,4.5 2.485,0 4.5,-2.0148 4.5,-4.5"
             inkscape:connector-curvature="0" />
          <g
             transform="matrix(0,-0.1,0.1,0,0,401)"
             id="g3032">
            <path
               id="path3034"
               style="fill:none;stroke:#000000;stroke-width:4.5;stroke-linecap:butt;stroke-linejoin:miter;stroke-miterlimit:10;stroke-opacity:1;stroke-dasharray:none"
               d="m 770,3105 c 24.852,0 45,-20.15 45,-45 0,-24.85 -20.148,-45 -45,-45 -24.852,0 -45,20.15 -45,45 0,24.85 20.148,45 45,45 z"
               inkscape:connector-curvature="0" />
          </g>
          <path
             id="path3036"
             style="fill:#000000;fill-opacity:1;fill-rule:evenodd;stroke:none"
             d="m 454.5,324 c 0,-2.4852 -2.015,-4.5 -4.5,-4.5 -2.485,0 -4.5,2.0148 -4.5,4.5 0,2.4852 2.015,4.5 4.5,4.5 2.485,0 4.5,-2.0148 4.5,-4.5"
             inkscape:connector-curvature="0" />
          <g
             transform="matrix(0,-0.1,0.1,0,0,401)"
             id="g3038">
            <path
               id="path3040"
               style="fill:none;stroke:#000000;stroke-width:4.5;stroke-linecap:butt;stroke-linejoin:miter;stroke-miterlimit:10;stroke-opacity:1;stroke-dasharray:none"
               d="m 770,4545 c 24.852,0 45,-20.15 45,-45 0,-24.85 -20.148,-45 -45,-45 -24.852,0 -45,20.15 -45,45 0,24.85 20.148,45 45,45 z"
               inkscape:connector-curvature="0" />
          </g>
          <path
             id="path3042"
             style="fill:#000000;fill-opacity:1;fill-rule:evenodd;stroke:none"
             d="m 238.5,252 c 0,-2.485 -2.015,-4.5 -4.5,-4.5 -2.485,0 -4.5,2.015 -4.5,4.5 0,2.485 2.015,4.5 4.5,4.5 2.485,0 4.5,-2.015 4.5,-4.5"
             inkscape:connector-curvature="0" />
          <g
             transform="matrix(0,-0.1,0.1,0,0,401)"
             id="g3044">
            <path
               id="path3046"
               style="fill:none;stroke:#000000;stroke-width:4.5;stroke-linecap:butt;stroke-linejoin:miter;stroke-miterlimit:10;stroke-opacity:1;stroke-dasharray:none"
               d="m 1490,2385 c 24.85,0 45,-20.15 45,-45 0,-24.85 -20.15,-45 -45,-45 -24.85,0 -45,20.15 -45,45 0,24.85 20.15,45 45,45 z"
               inkscape:connector-curvature="0" />
          </g>
          <path
             id="path3048"
             style="fill:#000000;fill-opacity:1;fill-rule:evenodd;stroke:none"
             d="m 382.5,252 c 0,-2.485 -2.015,-4.5 -4.5,-4.5 -2.485,0 -4.5,2.015 -4.5,4.5 0,2.485 2.015,4.5 4.5,4.5 2.485,0 4.5,-2.015 4.5,-4.5"
             inkscape:connector-curvature="0" />
          <g
             transform="matrix(0,-0.1,0.1,0,0,401)"
             id="g3050">
            <path
               id="path3052"
               style="fill:none;stroke:#000000;stroke-width:4.5;stroke-linecap:butt;stroke-linejoin:miter;stroke-miterlimit:10;stroke-opacity:1;stroke-dasharray:none"
               d="m 1490,3825 c 24.85,0 45,-20.15 45,-45 0,-24.85 -20.15,-45 -45,-45 -24.85,0 -45,20.15 -45,45 0,24.85 20.15,45 45,45 z"
               inkscape:connector-curvature="0" />
          </g>
          <path
             id="path3054"
             style="fill:#000000;fill-opacity:1;fill-rule:evenodd;stroke:none"
             d="m 166.5,36 c 0,-2.48499 -2.015,-4.50001 -4.5,-4.50001 -2.485,0 -4.5,2.01502 -4.5,4.50001 0,2.485 2.015,4.5 4.5,4.5 2.485,0 4.5,-2.015 4.5,-4.5"
             inkscape:connector-curvature="0" />
          <g
             transform="matrix(0,-0.1,0.1,0,0,401)"
             id="g3056">
            <path
               id="path3058"
               style="fill:none;stroke:#000000;stroke-width:4.5;stroke-linecap:butt;stroke-linejoin:miter;stroke-miterlimit:10;stroke-opacity:1;stroke-dasharray:none"
               d="m 3650,1665 c 24.85,0 45,-20.15 45,-45 0,-24.85 -20.15,-45 -45,-45 -24.85,0 -45,20.15 -45,45 0,24.85 20.15,45 45,45 z"
               inkscape:connector-curvature="0" />
          </g>
          <path
             id="path3060"
             style="fill:#000000;fill-opacity:1;fill-rule:evenodd;stroke:none"
             d="m 94.5,108 c 0,-2.485 -2.01479,-4.5 -4.5,-4.5 -2.48519,0 -4.5,2.015 -4.5,4.5 0,2.485 2.01481,4.5 4.5,4.5 2.48521,0 4.5,-2.015 4.5,-4.5"
             inkscape:connector-curvature="0" />
          <g
             transform="matrix(0,-0.1,0.1,0,0,401)"
             id="g3062">
            <path
               id="path3064"
               style="fill:none;stroke:#000000;stroke-width:4.5;stroke-linecap:butt;stroke-linejoin:miter;stroke-miterlimit:10;stroke-opacity:1;stroke-dasharray:none"
               d="m 2930,945 c 24.85,0 45,-20.1479 45,-45 0,-24.8519 -20.15,-45 -45,-45 -24.85,0 -45,20.1481 -45,45 0,24.8521 20.15,45 45,45 z"
               inkscape:connector-curvature="0" />
          </g>
          <path
             id="path3066"
             style="fill:#000000;fill-opacity:1;fill-rule:evenodd;stroke:none"
             d="m 166.5,180 c 0,-2.485 -2.015,-4.5 -4.5,-4.5 -2.485,0 -4.5,2.015 -4.5,4.5 0,2.485 2.015,4.5 4.5,4.5 2.485,0 4.5,-2.015 4.5,-4.5"
             inkscape:connector-curvature="0" />
          <g
             transform="matrix(0,-0.1,0.1,0,0,401)"
             id="g3068">
            <path
               id="path3070"
               style="fill:none;stroke:#000000;stroke-width:4.5;stroke-linecap:butt;stroke-linejoin:miter;stroke-miterlimit:10;stroke-opacity:1;stroke-dasharray:none"
               d="m 2210,1665 c 24.85,0 45,-20.15 45,-45 0,-24.85 -20.15,-45 -45,-45 -24.85,0 -45,20.15 -45,45 0,24.85 20.15,45 45,45 z"
               inkscape:connector-curvature="0" />
          </g>
          <path
             id="path3072"
             style="fill:#000000;fill-opacity:1;fill-rule:evenodd;stroke:none"
             d="m 310.5,180 c 0,-2.485 -2.015,-4.5 -4.5,-4.5 -2.485,0 -4.5,2.015 -4.5,4.5 0,2.485 2.015,4.5 4.5,4.5 2.485,0 4.5,-2.015 4.5,-4.5"
             inkscape:connector-curvature="0" />
          <g
             transform="matrix(0,-0.1,0.1,0,0,401)"
             id="g3074">
            <path
               id="path3076"
               style="fill:none;stroke:#000000;stroke-width:4.5;stroke-linecap:butt;stroke-linejoin:miter;stroke-miterlimit:10;stroke-opacity:1;stroke-dasharray:none"
               d="m 2210,3105 c 24.85,0 45,-20.15 45,-45 0,-24.85 -20.15,-45 -45,-45 -24.85,0 -45,20.15 -45,45 0,24.85 20.15,45 45,45 z"
               inkscape:connector-curvature="0" />
          </g>
          <path
             id="path3078"
             style="fill:#000000;fill-opacity:1;fill-rule:evenodd;stroke:none"
             d="m 238.5,108 c 0,-2.485 -2.015,-4.5 -4.5,-4.5 -2.485,0 -4.5,2.015 -4.5,4.5 0,2.485 2.015,4.5 4.5,4.5 2.485,0 4.5,-2.015 4.5,-4.5"
             inkscape:connector-curvature="0" />
          <g
             transform="matrix(0,-0.1,0.1,0,0,401)"
             id="g3080">
            <path
               id="path3082"
               style="fill:none;stroke:#000000;stroke-width:4.5;stroke-linecap:butt;stroke-linejoin:miter;stroke-miterlimit:10;stroke-opacity:1;stroke-dasharray:none"
               d="m 2930,2385 c 24.85,0 45,-20.15 45,-45 0,-24.85 -20.15,-45 -45,-45 -24.85,0 -45,20.15 -45,45 0,24.85 20.15,45 45,45 z"
               inkscape:connector-curvature="0" />
          </g>
          <g
             transform="matrix(0,-0.1,0.1,0,0,401)"
             id="g3084">
            <path
               id="path3086"
               style="fill:none;stroke:#000000;stroke-width:4.5;stroke-linecap:butt;stroke-linejoin:miter;stroke-miterlimit:10;stroke-opacity:1;stroke-dasharray:none"
               d="M 770,3060 50,3780 770,4500"
               inkscape:connector-curvature="0" />
          </g>
          <g
             transform="matrix(0,-0.1,0.1,0,0,401)"
             id="g3088">
            <path
               id="path3090"
               style="fill:none;stroke:#000000;stroke-width:4.5;stroke-linecap:butt;stroke-linejoin:miter;stroke-miterlimit:10;stroke-opacity:1;stroke-dasharray:none"
               d="M 1490,3780 770,3060 1490,2340"
               inkscape:connector-curvature="0" />
          </g>
          <g
             transform="matrix(0,-0.1,0.1,0,0,401)"
             id="g3092">
            <path
               id="path3094"
               style="fill:none;stroke:#000000;stroke-width:4.5;stroke-linecap:butt;stroke-linejoin:miter;stroke-miterlimit:10;stroke-opacity:1;stroke-dasharray:none"
               d="m 2210,3060 -720,-720 720,-720"
               inkscape:connector-curvature="0" />
          </g>
          <g
             transform="matrix(0,-0.1,0.1,0,0,401)"
             id="g3096">
            <path
               id="path3098"
               style="fill:none;stroke:#000000;stroke-width:4.5;stroke-linecap:butt;stroke-linejoin:miter;stroke-miterlimit:10;stroke-opacity:1;stroke-dasharray:36;stroke-dashoffset:0"
               d="M 2300,1530 2840,990"
               inkscape:connector-curvature="0" />
          </g>
          <g
             transform="matrix(0,-0.1,0.1,0,0,401)"
             id="g3100">
            <path
               id="path3102"
               style="fill:none;stroke:#000000;stroke-width:4.5;stroke-linecap:butt;stroke-linejoin:miter;stroke-miterlimit:10;stroke-opacity:1;stroke-dasharray:none"
               d="m 2210,1620 720,720"
               inkscape:connector-curvature="0" />
          </g>
          <g
             transform="matrix(0,-0.1,0.1,0,0,401)"
             id="g3104">
            <path
               id="path3106"
               style="fill:none;stroke:#000000;stroke-width:4.5;stroke-linecap:butt;stroke-linejoin:miter;stroke-miterlimit:10;stroke-opacity:1;stroke-dasharray:36;stroke-dashoffset:0"
               d="M 3650,1620 2930,900 3650,180"
               inkscape:connector-curvature="0" />
          </g>
          <g
             transform="matrix(0,-0.1,0.1,0,0,401)"
             id="g3108">
            <path
               id="path3110"
               style="fill:none;stroke:#000000;stroke-width:4.5;stroke-linecap:butt;stroke-linejoin:miter;stroke-miterlimit:10;stroke-opacity:1;stroke-dasharray:none"
               d="m 2930,900 720,720"
               inkscape:connector-curvature="0" />
          </g>
          <g
             transform="matrix(0,-1,1,0,0,401)"
             id="g3112">
            <text
               id="text3114"
               transform="matrix(0,1,1,0,396.5,162)">
              <tspan
                 id="tspan3116"
                 sodipodi:role="line"
                 y="0"
                 x="0 7.1999998 10.8 14.4 18 25.200001"
                 style="font-size:14.39999962px;font-variant:normal;font-weight:normal;writing-mode:lr-tb;fill:#000000;fill-opacity:1;fill-rule:nonzero;stroke:none;font-family:Times;-inkscape-font-specification:Times-Roman">0...01</tspan>
            </text>
          </g>
          <g
             transform="matrix(0,-1,1,0,0,401)"
             id="g3118">
            <text
               id="text3120"
               transform="matrix(0,1,1,0,401,13.5)">
              <tspan
                 id="tspan3122"
                 y="0"
                 x="0"
                 style="font-size:14.39999962px;font-variant:normal;font-weight:normal;writing-mode:lr-tb;fill:#000000;fill-opacity:1;fill-rule:nonzero;stroke:none;font-family:Times;-inkscape-font-specification:Times-Roman">0</tspan>
            </text>
          </g>
          <g
             transform="matrix(0,-1,1,0,0,401)"
             id="g3124">
            <text
               id="text3126"
               transform="matrix(-1,0,0,1,392,27)">
              <tspan
                 id="tspan3128"
                 y="0"
                 x="0"
                 style="font-size:10.80000019px;font-variant:normal;font-weight:normal;writing-mode:lr-tb;fill:#000000;fill-opacity:1;fill-rule:nonzero;stroke:none;font-family:Times;-inkscape-font-specification:Times-Roman">8</tspan>
            </text>
          </g>
          <g
             transform="matrix(0,-1,1,0,0,401)"
             id="g3130">
            <text
               id="text3132"
               transform="matrix(0,1,1,0,108.5,454.5)">
              <tspan
                 id="tspan3134"
                 y="0"
                 x="0"
                 style="font-size:14.39999962px;font-variant:normal;font-weight:normal;writing-mode:lr-tb;fill:#000000;fill-opacity:1;fill-rule:nonzero;stroke:none;font-family:Times;-inkscape-font-specification:Times-Roman">1</tspan>
            </text>
          </g>
          <g
             transform="matrix(0,-1,1,0,0,401)"
             id="g3136">
            <text
               id="text3138"
               transform="matrix(0,1,1,0,180.5,378)">
              <tspan
                 id="tspan3140"
                 sodipodi:role="line"
                 y="0"
                 x="0 7.1999998"
                 style="font-size:14.39999962px;font-variant:normal;font-weight:normal;writing-mode:lr-tb;fill:#000000;fill-opacity:1;fill-rule:nonzero;stroke:none;font-family:Times;-inkscape-font-specification:Times-Roman">01</tspan>
            </text>
          </g>
          <g
             transform="matrix(0,-1,1,0,0,401)"
             id="g3142">
            <text
               id="text3144"
               transform="matrix(0,1,1,0,252.5,310.5)">
              <tspan
                 id="tspan3146"
                 sodipodi:role="line"
                 y="0"
                 x="0 7.1999998 14.4"
                 style="font-size:14.39999962px;font-variant:normal;font-weight:normal;writing-mode:lr-tb;fill:#000000;fill-opacity:1;fill-rule:nonzero;stroke:none;font-family:Times;-inkscape-font-specification:Times-Roman">001</tspan>
            </text>
          </g>
          <g
             transform="matrix(0,-1,1,0,0,401)"
             id="g3148">
            <text
               id="text3150"
               transform="matrix(0,1,1,0,324.5,234)">
              <tspan
                 id="tspan3152"
                 sodipodi:role="line"
                 y="0"
                 x="0 7.1999998 14.4 21.6"
                 style="font-size:14.39999962px;font-variant:normal;font-weight:normal;writing-mode:lr-tb;fill:#000000;fill-opacity:1;fill-rule:nonzero;stroke:none;font-family:Times;-inkscape-font-specification:Times-Roman">0001</tspan>
            </text>
          </g>
          <g
             transform="matrix(0,-1,1,0,0,401)"
             id="g3154">
            <text
               id="text3156"
               transform="matrix(0,1,1,0,99.5,441)">
              <tspan
                 id="tspan3158"
                 y="0"
                 x="0"
                 style="font-size:21.60000038px;font-variant:normal;font-weight:normal;writing-mode:lr-tb;fill:#000000;fill-opacity:1;fill-rule:nonzero;stroke:none;font-family:Times;-inkscape-font-specification:Times-Roman">q</tspan>
            </text>
          </g>
          <g
             transform="matrix(0,-1,1,0,0,401)"
             id="g3160">
            <text
               id="text3162"
               transform="matrix(0,1,1,0,171.5,364.5)">
              <tspan
                 id="tspan3164"
                 y="0"
                 x="0"
                 style="font-size:21.60000038px;font-variant:normal;font-weight:normal;writing-mode:lr-tb;fill:#000000;fill-opacity:1;fill-rule:nonzero;stroke:none;font-family:Times;-inkscape-font-specification:Times-Roman">q</tspan>
            </text>
          </g>
          <g
             transform="matrix(0,-1,1,0,0,401)"
             id="g3166">
            <text
               id="text3168"
               transform="matrix(0,1,1,0,243.5,297)">
              <tspan
                 id="tspan3170"
                 y="0"
                 x="0"
                 style="font-size:21.60000038px;font-variant:normal;font-weight:normal;writing-mode:lr-tb;fill:#000000;fill-opacity:1;fill-rule:nonzero;stroke:none;font-family:Times;-inkscape-font-specification:Times-Roman">q</tspan>
            </text>
          </g>
          <g
             transform="matrix(0,-1,1,0,0,401)"
             id="g3172">
            <text
               id="text3174"
               transform="matrix(0,1,1,0,315.5,220.5)">
              <tspan
                 id="tspan3176"
                 y="0"
                 x="0"
                 style="font-size:21.60000038px;font-variant:normal;font-weight:normal;writing-mode:lr-tb;fill:#000000;fill-opacity:1;fill-rule:nonzero;stroke:none;font-family:Times;-inkscape-font-specification:Times-Roman">q</tspan>
            </text>
          </g>
          <g
             transform="matrix(0,-1,1,0,0,401)"
             id="g3178">
            <text
               id="text3180"
               transform="matrix(0,1,1,0,387.5,148.5)">
              <tspan
                 id="tspan3182"
                 y="0"
                 x="0"
                 style="font-size:21.60000038px;font-variant:normal;font-weight:normal;writing-mode:lr-tb;fill:#000000;fill-opacity:1;fill-rule:nonzero;stroke:none;font-family:Times;-inkscape-font-specification:Times-Roman">q</tspan>
            </text>
          </g>
          <path
             id="path3184"
             style="fill:#000000;fill-opacity:1;fill-rule:evenodd;stroke:none"
             d="m 382.5,396 c 0,-2.4852 -2.015,-4.5 -4.5,-4.5 -2.485,0 -4.5,2.0148 -4.5,4.5 0,2.4852 2.015,4.5 4.5,4.5 2.485,0 4.5,-2.0148 4.5,-4.5"
             inkscape:connector-curvature="0" />
          <g
             transform="matrix(0,-0.1,0.1,0,0,401)"
             id="g3186">
            <path
               id="path3188"
               style="fill:none;stroke:#000000;stroke-width:4.5;stroke-linecap:butt;stroke-linejoin:miter;stroke-miterlimit:10;stroke-opacity:1;stroke-dasharray:none"
               d="m 50,3825 c 24.85168,0 45,-20.15 45,-45 0,-24.85 -20.14832,-45 -45,-45 -24.85168,0 -45,20.15 -45,45 0,24.85 20.14832,45 45,45 z"
               inkscape:connector-curvature="0" />
          </g>
        </g>
      </g>
    </g>
  </g>
</svg>
