<?xml version="1.0" encoding="UTF-8" standalone="no"?>
<!DOCTYPE svg PUBLIC "-//W3C//DTD SVG 1.1//EN"
 "http://www.w3.org/Graphics/SVG/1.1/DTD/svg11.dtd">
<!-- Generated by graphviz version 2.26.3 (20100126.1600)
 -->
<!-- Title: G Pages: 1 -->
<svg width="510pt" height="398pt"
 viewBox="0.00 0.00 510.00 398.00" xmlns="http://www.w3.org/2000/svg" xmlns:xlink="http://www.w3.org/1999/xlink">
<g id="graph1" class="graph" transform="scale(1 1) rotate(0) translate(4 394)">
<title>G</title>
<polygon fill="white" stroke="white" points="-4,5 -4,-394 507,-394 507,5 -4,5"/>
<!-- N -->
<g id="node1" class="node"><title>N</title>
<ellipse fill="black" stroke="black" cx="262" cy="-2" rx="1.8" ry="1.8"/>
</g>
<!-- N0 -->
<g id="node2" class="node"><title>N0</title>
<ellipse fill="black" stroke="black" cx="245" cy="-60" rx="1.8" ry="1.8"/>
</g>
<!-- N&#45;&gt;N0 -->
<g id="edge20" class="edge"><title>N&#45;&gt;N0</title>
<path fill="none" stroke="black" d="M260.586,-3.28097C257.451,-6.22293 249.961,-13.8399 247,-22 243.977,-30.3314 243.573,-40.3665 243.874,-48.0316"/>
<polygon fill="black" stroke="black" points="240.402,-48.5161 244.734,-58.185 247.377,-47.9253 240.402,-48.5161"/>
<text text-anchor="middle" x="252" y="-26.9" font-family="Times Roman,serif" font-size="14.00">0</text>
</g>
<!-- N1 -->
<g id="node22" class="node"><title>N1</title>
<ellipse fill="black" stroke="black" cx="281" cy="-60" rx="1.8" ry="1.8"/>
</g>
<!-- N&#45;&gt;N1 -->
<g id="edge40" class="edge"><title>N&#45;&gt;N1</title>
<path fill="none" stroke="black" d="M262.632,-3.92976C264.863,-10.7406 272.487,-34.0131 277.183,-48.3468"/>
<polygon fill="black" stroke="black" points="273.907,-49.59 280.346,-58.0035 280.559,-47.4108 273.907,-49.59"/>
<text text-anchor="middle" x="280" y="-26.9" font-family="Times Roman,serif" font-size="14.00">1</text>
</g>
<!-- N00 -->
<g id="node3" class="node"><title>N00</title>
<ellipse fill="black" stroke="black" cx="179" cy="-118" rx="1.8" ry="1.8"/>
</g>
<!-- N0&#45;&gt;N00 -->
<g id="edge8" class="edge"><title>N0&#45;&gt;N00</title>
<path fill="none" stroke="black" d="M243.369,-61.4337C235.872,-68.0211 204.419,-95.6623 188.425,-109.717"/>
<polygon fill="black" stroke="black" points="186.018,-107.173 180.817,-116.403 190.639,-112.431 186.018,-107.173"/>
<text text-anchor="middle" x="227" y="-84.9" font-family="Times Roman,serif" font-size="14.00">0</text>
</g>
<!-- N01 -->
<g id="node11" class="node"><title>N01</title>
<ellipse fill="black" stroke="black" cx="245" cy="-118" rx="1.8" ry="1.8"/>
</g>
<!-- N0&#45;&gt;N01 -->
<g id="edge18" class="edge"><title>N0&#45;&gt;N01</title>
<path fill="none" stroke="black" d="M245,-61.9298C245,-68.6718 245,-91.5446 245,-105.91"/>
<polygon fill="black" stroke="black" points="241.5,-106.003 245,-116.004 248.5,-106.004 241.5,-106.003"/>
<text text-anchor="middle" x="250" y="-84.9" font-family="Times Roman,serif" font-size="14.00">1</text>
</g>
<!-- N001 -->
<g id="node4" class="node"><title>N001</title>
<ellipse fill="black" stroke="black" cx="117" cy="-192" rx="1.8" ry="1.8"/>
</g>
<!-- N00&#45;&gt;N001 -->
<g id="edge6" class="edge"><title>N00&#45;&gt;N001</title>
<path fill="none" stroke="black" d="M177.705,-119.546C170.96,-127.596 139.595,-165.031 124.784,-182.709"/>
<polygon fill="black" stroke="black" points="122.027,-180.55 118.288,-190.463 127.393,-185.045 122.027,-180.55"/>
<text text-anchor="middle" x="166" y="-142.9" font-family="Times Roman,serif" font-size="14.00">1</text>
</g>
<!-- N0010L1 -->
<g id="node5" class="node"><title>N0010L1</title>
<polygon fill="none" stroke="black" points="66,-300 2.84217e-14,-300 0,-264 66,-264 66,-300"/>
<text text-anchor="middle" x="33" y="-277.9" font-family="Times Roman,serif" font-size="14.00">0010...</text>
</g>
<!-- N001&#45;&gt;N0010L1 -->
<g id="edge2" class="edge"><title>N001&#45;&gt;N0010L1</title>
<path fill="none" stroke="black" d="M115.542,-193.562C108.652,-200.944 78.7821,-232.948 56.949,-256.34"/>
<polygon fill="black" stroke="black" points="54.1621,-254.197 49.8976,-263.895 59.2795,-258.973 54.1621,-254.197"/>
<text text-anchor="middle" x="88" y="-232.9" font-family="Times Roman,serif" font-size="14.00">0</text>
</g>
<!-- N0011L7 -->
<g id="node7" class="node"><title>N0011L7</title>
<polygon fill="none" stroke="black" points="150,-300 84,-300 84,-264 150,-264 150,-300"/>
<text text-anchor="middle" x="117" y="-277.9" font-family="Times Roman,serif" font-size="14.00">0011...</text>
</g>
<!-- N001&#45;&gt;N0011L7 -->
<g id="edge4" class="edge"><title>N001&#45;&gt;N0011L7</title>
<path fill="none" stroke="black" d="M117,-193.88C117,-201.507 117,-230.82 117,-253.569"/>
<polygon fill="black" stroke="black" points="113.5,-253.77 117,-263.77 120.5,-253.77 113.5,-253.77"/>
<text text-anchor="middle" x="122" y="-232.9" font-family="Times Roman,serif" font-size="14.00">1</text>
</g>
<!-- N010L2 -->
<g id="node12" class="node"><title>N010L2</title>
<polygon fill="none" stroke="black" points="229,-210 173,-210 173,-174 229,-174 229,-210"/>
<text text-anchor="middle" x="201" y="-187.9" font-family="Times Roman,serif" font-size="14.00">010...</text>
</g>
<!-- N01&#45;&gt;N010L2 -->
<g id="edge10" class="edge"><title>N01&#45;&gt;N010L2</title>
<path fill="none" stroke="black" d="M243.872,-119.873C241.741,-123.411 236.982,-131.322 233,-138 227.698,-146.892 221.924,-156.621 216.759,-165.341"/>
<polygon fill="black" stroke="black" points="213.724,-163.597 211.642,-173.985 219.748,-167.163 213.724,-163.597"/>
<text text-anchor="middle" x="238" y="-142.9" font-family="Times Roman,serif" font-size="14.00">0</text>
</g>
<!-- N011 -->
<g id="node14" class="node"><title>N011</title>
<ellipse fill="black" stroke="black" cx="249" cy="-192" rx="1.8" ry="1.8"/>
</g>
<!-- N01&#45;&gt;N011 -->
<g id="edge16" class="edge"><title>N01&#45;&gt;N011</title>
<path fill="none" stroke="black" d="M245.099,-119.829C245.54,-127.996 247.353,-161.525 248.344,-179.869"/>
<polygon fill="black" stroke="black" points="244.855,-180.167 248.89,-189.963 251.845,-179.789 244.855,-180.167"/>
<text text-anchor="middle" x="252" y="-142.9" font-family="Times Roman,serif" font-size="14.00">1</text>
</g>
<!-- N0110L4 -->
<g id="node15" class="node"><title>N0110L4</title>
<polygon fill="none" stroke="black" points="234,-300 168,-300 168,-264 234,-264 234,-300"/>
<text text-anchor="middle" x="201" y="-277.9" font-family="Times Roman,serif" font-size="14.00">0110...</text>
</g>
<!-- N011&#45;&gt;N0110L4 -->
<g id="edge12" class="edge"><title>N011&#45;&gt;N0110L4</title>
<path fill="none" stroke="black" d="M247.997,-193.88C243.856,-201.645 227.726,-231.889 215.508,-254.797"/>
<polygon fill="black" stroke="black" points="212.34,-253.3 210.723,-263.77 218.517,-256.594 212.34,-253.3"/>
<text text-anchor="middle" x="235" y="-232.9" font-family="Times Roman,serif" font-size="14.00">0</text>
</g>
<!-- N0111L8 -->
<g id="node17" class="node"><title>N0111L8</title>
<polygon fill="none" stroke="black" points="318,-300 252,-300 252,-264 318,-264 318,-300"/>
<text text-anchor="middle" x="285" y="-277.9" font-family="Times Roman,serif" font-size="14.00">0111...</text>
</g>
<!-- N011&#45;&gt;N0111L8 -->
<g id="edge14" class="edge"><title>N011&#45;&gt;N0111L8</title>
<path fill="none" stroke="black" d="M249.752,-193.88C252.83,-201.576 264.741,-231.353 273.874,-254.185"/>
<polygon fill="black" stroke="black" points="270.744,-255.785 277.708,-263.77 277.244,-253.186 270.744,-255.785"/>
<text text-anchor="middle" x="276" y="-232.9" font-family="Times Roman,serif" font-size="14.00">1</text>
</g>
<!-- N10 -->
<g id="node23" class="node"><title>N10</title>
<ellipse fill="black" stroke="black" cx="281" cy="-118" rx="1.8" ry="1.8"/>
</g>
<!-- N1&#45;&gt;N10 -->
<g id="edge32" class="edge"><title>N1&#45;&gt;N10</title>
<path fill="none" stroke="black" d="M281,-61.9298C281,-68.6718 281,-91.5446 281,-105.91"/>
<polygon fill="black" stroke="black" points="277.5,-106.003 281,-116.004 284.5,-106.004 277.5,-106.003"/>
<text text-anchor="middle" x="286" y="-84.9" font-family="Times Roman,serif" font-size="14.00">0</text>
</g>
<!-- N11 -->
<g id="node35" class="node"><title>N11</title>
<ellipse fill="black" stroke="black" cx="400" cy="-118" rx="1.8" ry="1.8"/>
</g>
<!-- N1&#45;&gt;N11 -->
<g id="edge38" class="edge"><title>N1&#45;&gt;N11</title>
<path fill="none" stroke="black" d="M282.682,-60.8199C294.245,-66.4556 362.298,-99.6244 389.131,-112.703"/>
<polygon fill="black" stroke="black" points="387.685,-115.891 398.208,-117.127 390.752,-109.599 387.685,-115.891"/>
<text text-anchor="middle" x="364" y="-84.9" font-family="Times Roman,serif" font-size="14.00">1</text>
</g>
<!-- N100 -->
<g id="node24" class="node"><title>N100</title>
<ellipse fill="black" stroke="black" cx="278" cy="-192" rx="1.8" ry="1.8"/>
</g>
<!-- N10&#45;&gt;N100 -->
<g id="edge28" class="edge"><title>N10&#45;&gt;N100</title>
<path fill="none" stroke="black" d="M280.926,-119.829C280.595,-127.996 279.235,-161.525 278.492,-179.869"/>
<polygon fill="black" stroke="black" points="274.991,-179.829 278.083,-189.963 281.985,-180.113 274.991,-179.829"/>
<text text-anchor="middle" x="286" y="-142.9" font-family="Times Roman,serif" font-size="14.00">0</text>
</g>
<!-- N101L3 -->
<g id="node32" class="node"><title>N101L3</title>
<polygon fill="none" stroke="black" points="354,-210 298,-210 298,-174 354,-174 354,-210"/>
<text text-anchor="middle" x="326" y="-187.9" font-family="Times Roman,serif" font-size="14.00">101...</text>
</g>
<!-- N10&#45;&gt;N101L3 -->
<g id="edge30" class="edge"><title>N10&#45;&gt;N101L3</title>
<path fill="none" stroke="black" d="M282.369,-119.837C284.943,-123.316 290.637,-131.131 295,-138 300.449,-146.577 306.075,-156.136 311.015,-164.799"/>
<polygon fill="black" stroke="black" points="308.106,-166.766 316.064,-173.76 314.204,-163.329 308.106,-166.766"/>
<text text-anchor="middle" x="311" y="-142.9" font-family="Times Roman,serif" font-size="14.00">1</text>
</g>
<!-- N1001 -->
<g id="node25" class="node"><title>N1001</title>
<ellipse fill="black" stroke="black" cx="338" cy="-282" rx="1.8" ry="1.8"/>
</g>
<!-- N100&#45;&gt;N1001 -->
<g id="edge26" class="edge"><title>N100&#45;&gt;N1001</title>
<path fill="none" stroke="black" d="M278.995,-193.71C280.883,-196.936 285.141,-204.122 289,-210 305.104,-234.533 310.896,-239.467 327,-264 328.568,-266.388 330.201,-268.992 331.715,-271.458"/>
<polygon fill="black" stroke="black" points="328.864,-273.509 337.005,-280.29 334.869,-269.912 328.864,-273.509"/>
<text text-anchor="middle" x="320" y="-232.9" font-family="Times Roman,serif" font-size="14.00">1</text>
</g>
<!-- N10010L0 -->
<g id="node26" class="node"><title>N10010L0</title>
<polygon fill="none" stroke="black" points="329,-390 255,-390 255,-354 329,-354 329,-390"/>
<text text-anchor="middle" x="292" y="-367.9" font-family="Times Roman,serif" font-size="14.00">10010...</text>
</g>
<!-- N1001&#45;&gt;N10010L0 -->
<g id="edge22" class="edge"><title>N1001&#45;&gt;N10010L0</title>
<path fill="none" stroke="black" d="M337.039,-283.88C333.07,-291.645 317.612,-321.889 305.904,-344.797"/>
<polygon fill="black" stroke="black" points="302.752,-343.273 301.317,-353.77 308.985,-346.459 302.752,-343.273"/>
<text text-anchor="middle" x="325" y="-322.9" font-family="Times Roman,serif" font-size="14.00">0</text>
</g>
<!-- N10011L6 -->
<g id="node28" class="node"><title>N10011L6</title>
<polygon fill="none" stroke="black" points="421,-390 347,-390 347,-354 421,-354 421,-390"/>
<text text-anchor="middle" x="384" y="-367.9" font-family="Times Roman,serif" font-size="14.00">10011...</text>
</g>
<!-- N1001&#45;&gt;N10011L6 -->
<g id="edge24" class="edge"><title>N1001&#45;&gt;N10011L6</title>
<path fill="none" stroke="black" d="M338.961,-283.88C342.93,-291.645 358.388,-321.889 370.096,-344.797"/>
<polygon fill="black" stroke="black" points="367.015,-346.459 374.683,-353.77 373.248,-343.273 367.015,-346.459"/>
<text text-anchor="middle" x="371" y="-322.9" font-family="Times Roman,serif" font-size="14.00">1</text>
</g>
<!-- N110L5 -->
<g id="node36" class="node"><title>N110L5</title>
<polygon fill="none" stroke="black" points="428,-210 372,-210 372,-174 428,-174 428,-210"/>
<text text-anchor="middle" x="400" y="-187.9" font-family="Times Roman,serif" font-size="14.00">110...</text>
</g>
<!-- N11&#45;&gt;N110L5 -->
<g id="edge34" class="edge"><title>N11&#45;&gt;N110L5</title>
<path fill="none" stroke="black" d="M400,-119.829C400,-125.912 400,-146.062 400,-163.53"/>
<polygon fill="black" stroke="black" points="396.5,-163.909 400,-173.909 403.5,-163.909 396.5,-163.909"/>
<text text-anchor="middle" x="405" y="-142.9" font-family="Times Roman,serif" font-size="14.00">0</text>
</g>
<!-- N111L9 -->
<g id="node38" class="node"><title>N111L9</title>
<polygon fill="none" stroke="black" points="502,-210 446,-210 446,-174 502,-174 502,-210"/>
<text text-anchor="middle" x="474" y="-187.9" font-family="Times Roman,serif" font-size="14.00">111...</text>
</g>
<!-- N11&#45;&gt;N111L9 -->
<g id="edge36" class="edge"><title>N11&#45;&gt;N111L9</title>
<path fill="none" stroke="black" d="M401.284,-119.284C406.91,-124.91 429.923,-147.923 448.574,-166.574"/>
<polygon fill="black" stroke="black" points="446.174,-169.124 455.72,-173.72 451.124,-164.174 446.174,-169.124"/>
<text text-anchor="middle" x="442" y="-142.9" font-family="Times Roman,serif" font-size="14.00">1</text>
</g>
</g>
</svg>
